# xmcd
#
# Track frame offsets: 
#        150
#        17980
#        29344
#        45296
#        68585
#        80934
#        94239
#        107308
#        117932
#        124852
#        132728
#        152864
#        166418
#        172271
#        191682
#        202264
#        219686
#        234197
#        249565
#
# Disc length: 3608 seconds
#
# Revision: 2
# Processed by: cddbd v1.5.2PL0 Copyright (c) Steve Scherf et al.
# Submitted via: ExactAudioCopyFreeDBPlugin 1.0
#
DISCID=150e1613
DTITLE=Schubert - Lazarus or the Solemn Act of Resurrection, D.689 (fr
DTITLE=agment)
DYEAR=1978
DGENRE=Classical
TTITLE0=Act 1 - 1. Hier laßt mich ruh'n (Lazarus, Martha)
TTITLE1=Act 1 - 2. Trübe nicht mit Klagen (Maria)
TTITLE2=Act 1 - 3. Steh im letzten Kampf (Arie der Maria)
TTITLE3=Act 1 - 4. Voll Friede, ja voll Fried' (Lazarus, Nathanael)
TTITLE4=Act 1 - 5. Wenn ich ihm nachgerungen habe (Arie des Nathanael)
TTITLE5=Act 1 - 6. Nathanael, bewundern kann ich dich (Rezitativ, Mart
TTITLE5=ha, Maria, Lazarus)
TTITLE6=Act 1 - 7. Der Trost begleite dich hinüber (Maria)
TTITLE7=Act 1 - 8. Gottes Liebe (Arie der Maria)
TTITLE8=Act 1 - 9. Ach, so find ich ihn noch (Jemina, Lazarus)
TTITLE9=Act 1 - 10. Sing' mir ein Lied (Lazarus)
TTITLE10=Act 1 - 11. So schlummert auf Rosen (Arie der Jemina)
TTITLE11=Act 1 - 12. Nun entflog auf schnellen Schwingen (Jemina, Mari
TTITLE11=a, Martha, Nathanael)
TTITLE12=Act 1 - 13. Ich sterbe (Lazarus)
TTITLE13=Act 1 - 14. Heiliger, verlaß ihn nicht (Nathanael, Jemina, Ma
TTITLE13=ria, Chor)
TTITLE14=Act 2 - 1. Largo
TTITLE15=Act 2 - 2. Wo bin ich? (Simon)
TTITLE16=Act 2 - 3. O könnt' ich (Arie des Simon)
TTITLE17=Act 2 - 4. Weß ist der Klage Stimme (Rezitativ Nathanael, Sim
TTITLE17=on)
TTITLE18=Act 2 - 5. Sanft und still (Chor)
EXTD=
EXTT0=
EXTT1=
EXTT2=
EXTT3=
EXTT4=
EXTT5=
EXTT6=
EXTT7=
EXTT8=
EXTT9=
EXTT10=
EXTT11=
EXTT12=
EXTT13=
EXTT14=
EXTT15=
EXTT16=
EXTT17=
EXTT18=
PLAYORDER=
